<?xml version="1.0" standalone="no"?>
<!DOCTYPE svg PUBLIC "-//W3C//DTD SVG 20010904//EN"
 "http://www.w3.org/TR/2001/REC-SVG-20010904/DTD/svg10.dtd">
<svg version="1.0" xmlns="http://www.w3.org/2000/svg"
 width="512" height="512" viewBox="0 0 737.596413 577.654294"
 preserveAspectRatio="xMidYMid meet">
<metadata>Created by Svg.la</metadata>
<g transform="translate(-136.245192,796.000000) scale(0.100000,-0.100000)"
fill="#000000" stroke="none">
<path d="M8076 7808 c-41 -84 -85 -179 -99 -210 l-25 -57 -235 2 c-266 2 -270
1 -282 -73 -9 -50 0 -74 29 -88 34 -15 260 -70 324 -78 28 -4 52 -11 52 -15 0
-5 -24 -69 -54 -142 -67 -164 -118 -309 -141 -407 -17 -68 -23 -79 -68 -120
-256 -233 -536 -320 -664 -207 -37 32 -63 81 -63 116 0 15 10 20 48 26 71 10
219 62 291 101 245 135 393 354 351 522 -24 96 -85 171 -180 218 -78 40 -199
45 -301 14 -147 -44 -269 -121 -392 -247 -167 -171 -258 -350 -270 -532 l-5
-64 -68 -54 c-151 -119 -269 -172 -394 -180 -74 -5 -91 -3 -133 17 -52 25 -91
72 -102 126 l-6 32 65 11 c195 34 382 133 509 271 192 208 171 448 -50 560
-64 33 -203 40 -290 15 -268 -77 -541 -340 -649 -625 -25 -68 -28 -87 -29
-205 0 -128 0 -131 34 -198 56 -112 170 -203 305 -245 83 -25 269 -20 388 11
112 30 282 113 394 193 41 30 77 54 79 54 2 0 19 -23 39 -50 49 -67 159 -139
261 -169 71 -21 92 -23 209 -18 150 6 235 27 365 88 86 40 235 135 266 169 25
27 42 25 49 -7 11 -41 61 -108 108 -142 139 -103 331 -86 529 45 137 90 339
311 339 371 0 48 -49 103 -92 103 -7 0 -56 -45 -107 -101 -52 -55 -117 -117
-145 -138 -59 -43 -143 -81 -180 -81 -40 0 -66 33 -66 83 0 98 104 428 210
667 l47 105 137 6 c168 8 261 25 286 51 10 11 24 40 31 65 10 39 10 50 -2 72
-18 32 -57 39 -221 40 -77 1 -118 5 -118 12 0 6 27 67 60 136 33 69 60 133 60
143 0 24 -36 67 -70 85 -25 13 -259 75 -283 75 -5 0 -41 -69 -81 -152z m243
63 c57 -16 109 -35 116 -42 11 -12 1 -40 -61 -167 -41 -84 -74 -157 -74 -163
0 -19 47 -27 205 -34 88 -4 163 -9 167 -12 9 -5 -29 -83 -40 -83 -4 0 -36 -5
-72 -11 -36 -6 -126 -14 -200 -18 l-134 -6 -63 -150 c-119 -280 -203 -557
-203 -669 0 -91 60 -152 139 -142 115 15 291 146 404 299 14 21 47 14 47 -10
0 -43 -178 -241 -286 -319 -168 -120 -351 -162 -462 -105 -80 42 -141 137
-142 222 0 25 -3 49 -7 52 -9 9 -37 -10 -98 -68 -267 -249 -660 -344 -907
-219 -66 34 -141 111 -163 169 -11 26 -24 45 -33 45 -9 0 -47 -24 -86 -54
-156 -118 -285 -184 -436 -223 -180 -46 -355 -31 -468 41 -62 39 -127 117
-152 182 -30 81 -25 234 14 342 96 275 408 560 658 602 121 21 213 -2 281 -68
57 -55 71 -87 70 -163 -1 -170 -169 -358 -412 -460 -58 -24 -122 -42 -270 -75
-22 -5 -23 -8 -18 -56 9 -74 45 -137 101 -175 58 -40 103 -53 179 -53 131 0
355 109 500 243 35 33 37 38 37 94 0 188 131 418 336 588 94 78 165 120 255
152 64 22 86 25 169 21 108 -5 151 -22 212 -85 67 -69 82 -134 52 -234 -58
-193 -275 -358 -575 -436 l-109 -28 0 -40 c0 -48 31 -119 68 -158 46 -49 99
-70 187 -75 145 -8 303 53 460 175 139 109 171 146 190 223 36 143 117 369
200 554 14 32 22 63 18 67 -4 4 -57 15 -118 24 -120 17 -284 52 -304 65 -10 6
-11 15 -4 36 l10 29 244 -3 244 -2 84 182 c98 212 107 228 130 228 10 0 64
-13 120 -29z"/>
<path d="M7210 7241 c-63 -20 -122 -60 -201 -140 -74 -75 -92 -101 -141 -201
-31 -63 -60 -130 -63 -149 l-7 -34 58 8 c202 25 433 199 480 362 34 119 -21
186 -126 154z m88 -90 c8 -81 -113 -234 -239 -305 -62 -34 -166 -72 -175 -64
-7 8 48 114 91 173 76 107 179 193 265 221 47 16 54 13 58 -25z"/>
<path d="M6001 7168 c-113 -61 -244 -213 -310 -360 -33 -74 -44 -115 -33 -122
19 -12 163 28 242 66 105 51 235 173 275 259 73 158 -18 240 -174 157z m154
-48 c15 -47 -74 -185 -166 -256 -59 -45 -179 -107 -233 -120 l-29 -7 40 75
c77 142 173 247 278 303 59 31 101 33 110 5z"/>
<path d="M2470 7844 c-82 -17 -212 -65 -312 -115 -222 -111 -377 -250 -456
-408 -36 -72 -37 -79 -37 -180 0 -95 3 -112 27 -161 62 -125 164 -217 448
-402 131 -86 204 -153 248 -228 23 -39 27 -56 27 -125 0 -67 -4 -89 -27 -136
-52 -104 -178 -202 -316 -243 -175 -52 -358 -15 -398 81 -25 58 12 142 87 202
49 40 178 105 229 116 108 23 121 48 69 129 l-30 48 -59 -6 c-184 -21 -408
-127 -509 -242 -65 -74 -96 -147 -95 -224 1 -76 24 -128 85 -195 l40 -44 -38
-6 c-21 -4 -45 -9 -54 -11 -22 -6 -45 -62 -33 -80 30 -43 321 -468 388 -567
45 -65 96 -139 115 -164 l34 -45 -8 -289 c-6 -256 -5 -289 9 -289 8 0 21 -9
29 -20 13 -19 18 -20 173 -8 87 6 164 15 170 19 7 6 13 109 17 300 l7 291 122
196 c174 282 304 494 359 590 l47 83 -25 37 -25 37 -90 -3 -91 -3 74 69 c125
117 187 227 210 371 23 150 -30 290 -155 409 -75 71 -101 89 -340 241 -151 96
-197 134 -243 198 -28 40 -33 55 -33 105 0 70 15 108 64 167 96 114 330 246
477 269 103 16 118 -6 79 -110 -23 -61 -91 -146 -172 -215 -62 -52 -71 -79
-42 -123 28 -41 45 -50 98 -50 89 0 191 63 284 174 89 106 127 223 111 339
-15 99 -98 190 -203 222 -63 19 -246 19 -336 -1z m347 -54 c144 -61 179 -196
96 -362 -80 -158 -291 -306 -351 -246 -20 20 -14 31 43 76 136 109 224 288
181 370 -23 45 -49 56 -120 49 -214 -21 -527 -217 -599 -374 -27 -61 -29 -153
-3 -203 57 -109 137 -179 371 -321 249 -152 334 -236 377 -371 34 -111 18
-217 -54 -347 -86 -156 -252 -284 -458 -354 -143 -49 -193 -58 -341 -64 -138
-5 -152 -4 -240 21 -142 41 -225 96 -277 185 -102 175 86 401 413 494 134 38
165 38 165 -2 0 -12 -14 -21 -46 -29 -67 -18 -181 -73 -240 -115 -29 -21 -68
-61 -88 -90 -86 -125 -43 -249 106 -305 141 -53 366 -23 496 66 76 52 159 143
190 209 23 50 27 71 27 148 0 96 -14 135 -73 213 -29 38 -146 134 -229 188
-355 229 -441 320 -451 480 -10 149 64 290 220 417 283 232 686 353 885 267z
m-77 -2065 c0 -7 -172 -293 -300 -500 -51 -82 -105 -170 -120 -195 -15 -25
-44 -72 -64 -104 l-36 -60 0 -273 c0 -210 -3 -275 -12 -277 -7 -3 -68 -7 -135
-10 l-123 -7 0 287 0 286 -45 64 c-25 34 -63 89 -84 121 -22 32 -120 175 -219
318 -106 154 -174 263 -168 267 5 4 42 10 81 13 62 6 76 4 120 -18 28 -14 65
-28 83 -32 29 -6 49 -32 186 -234 85 -125 162 -234 171 -241 15 -13 20 -11 41
13 13 15 38 53 57 85 19 31 58 95 87 142 55 89 113 185 171 284 19 32 43 62
54 66 22 10 255 13 255 5z m-390 -85 c0 -12 -252 -430 -259 -430 -3 0 -61 83
-128 183 l-121 182 136 6 c145 7 199 16 297 47 73 24 75 24 75 12z"/>
<path d="M4900 7367 l-25 -13 3 -134 c4 -161 -11 -250 -62 -373 -41 -100 -135
-261 -203 -350 -114 -148 -287 -294 -323 -272 -32 20 5 202 102 503 60 187 62
194 49 240 -20 75 -31 86 -133 122 -92 34 -211 50 -233 33 -6 -4 -46 -65 -88
-134 -149 -244 -377 -559 -510 -704 -30 -33 -58 -57 -61 -54 -20 19 73 319
181 581 54 131 64 164 59 193 -11 56 -42 82 -149 120 -115 41 -197 54 -213 34
-21 -28 -117 -280 -177 -464 -153 -467 -140 -673 47 -765 61 -30 71 -32 143
-28 45 3 92 12 110 21 89 47 223 191 397 429 27 37 51 66 53 64 2 -2 -2 -46
-8 -98 -21 -177 24 -274 155 -338 181 -89 376 -26 651 210 291 250 525 582
565 802 15 77 6 178 -20 227 -24 47 -91 108 -144 131 -58 25 -135 33 -166 17z
m123 -54 c214 -60 208 -308 -14 -640 -88 -131 -299 -363 -400 -439 -14 -10
-64 -48 -110 -83 -168 -128 -320 -175 -437 -137 -62 21 -96 46 -128 97 -35 57
-33 180 6 379 42 213 35 218 -76 58 -166 -243 -325 -442 -397 -500 -75 -59
-142 -88 -205 -88 -90 0 -161 52 -191 139 -34 104 16 361 140 708 85 239 115
308 135 311 26 4 223 -63 242 -82 14 -14 9 -32 -47 -173 -73 -182 -155 -421
-176 -508 -8 -33 -15 -85 -15 -115 0 -99 35 -105 122 -22 143 135 374 448 591
797 l48 77 37 -7 c92 -17 205 -61 224 -86 23 -31 22 -35 -56 -284 -90 -284
-117 -467 -78 -516 35 -42 111 -24 199 48 150 121 285 294 382 490 97 195 118
285 107 476 -8 135 -12 131 97 100z"/>
<path d="M7880 6090 c-205 -20 -407 -130 -533 -290 -79 -99 -131 -205 -164
-329 -34 -128 -36 -316 -4 -434 33 -127 93 -230 185 -323 98 -98 187 -151 323
-193 90 -29 115 -32 230 -33 97 0 149 5 215 21 101 24 232 75 322 125 l64 36
6 82 c3 46 11 164 16 263 6 99 13 215 16 258 5 56 3 77 -5 77 -7 0 -17 14 -23
31 l-11 31 -318 -4 c-175 -2 -322 -7 -325 -11 -10 -9 -27 -235 -20 -261 3 -12
21 -29 40 -40 31 -16 47 -18 142 -11 l107 7 -6 -93 c-7 -110 -8 -111 -115
-135 -138 -31 -240 -7 -336 77 -147 129 -148 419 -2 624 69 96 144 145 255
165 141 25 244 -34 266 -153 5 -27 12 -37 26 -37 10 0 22 -7 27 -16 8 -14 22
-13 138 6 167 28 174 31 174 73 0 38 -36 151 -70 217 -38 75 -122 154 -213
199 -131 65 -253 87 -407 71z m211 -64 c115 -25 215 -73 274 -132 58 -57 114
-159 122 -221 l5 -40 -88 -17 c-144 -26 -147 -26 -154 10 -4 18 -17 48 -29 67
-54 87 -135 122 -271 115 -77 -4 -98 -9 -163 -41 -134 -66 -235 -205 -273
-373 -22 -101 -16 -256 14 -332 47 -120 164 -228 276 -253 105 -23 326 9 373
54 8 8 15 64 19 155 l7 142 -146 0 -147 0 0 49 c0 26 3 69 6 95 l7 46 278 0
279 0 0 -42 c0 -24 -7 -153 -15 -288 -8 -135 -15 -255 -15 -266 0 -41 -235
-144 -397 -175 -104 -19 -302 -7 -400 25 -155 50 -293 168 -364 309 -91 180
-98 444 -16 647 83 204 262 378 455 442 110 36 258 46 363 24z"/>
<path d="M6758 5991 c-48 -4 -90 -9 -93 -13 -4 -3 -16 -183 -27 -400 -11 -216
-22 -395 -24 -397 -3 -3 -11 4 -18 15 -37 52 -527 656 -607 747 l-26 30 -119
-9 -119 -9 -7 -65 c-6 -64 -18 -337 -38 -855 -5 -143 -12 -329 -15 -413 l-6
-152 26 -10 c14 -5 25 -15 25 -21 0 -9 41 -10 163 -5 89 4 165 11 169 14 4 4
12 158 18 342 7 184 15 361 18 393 l7 59 260 -328 c143 -180 278 -350 301
-378 l41 -51 143 2 c105 1 145 6 151 15 5 7 9 60 9 118 0 152 18 584 40 979
19 343 19 345 0 363 -11 10 -20 23 -20 28 0 11 -108 11 -252 1z m208 -143 c-8
-128 -33 -689 -45 -1027 -6 -139 -11 -254 -13 -256 -2 -1 -48 -5 -103 -7
l-100 -5 -110 140 c-60 77 -172 219 -249 315 -76 96 -172 219 -213 274 -109
142 -133 132 -133 -55 0 -100 -21 -700 -24 -704 -2 -2 -58 -6 -125 -11 -99 -6
-124 -5 -128 6 -6 14 4 287 34 984 15 341 19 399 33 402 8 3 45 6 82 8 l67 3
133 -165 c581 -722 539 -672 567 -665 14 4 28 8 30 10 4 5 7 47 26 470 9 182
18 340 20 352 5 21 11 23 123 26 64 1 121 4 126 5 5 1 6 -42 2 -100z"/>
<path d="M5265 5883 c-55 -2 -103 -7 -107 -11 -7 -7 -17 -189 -44 -767 -10
-219 -47 -310 -146 -359 -61 -30 -138 -35 -195 -11 -48 20 -71 41 -96 90 -31
59 -33 228 -8 620 18 276 20 331 8 340 -7 5 -16 19 -20 29 -7 18 -16 19 -129
13 -67 -4 -140 -7 -162 -7 -23 0 -48 -5 -56 -10 -20 -12 -37 -253 -46 -655 -7
-338 -1 -396 57 -514 47 -94 155 -201 250 -245 114 -55 186 -69 304 -63 55 3
111 9 123 13 18 5 11 -6 -28 -45 -64 -64 -89 -119 -90 -192 0 -97 59 -160 159
-167 73 -5 133 21 193 86 58 64 81 122 76 194 -7 89 -55 143 -144 157 -39 6
-45 10 -29 16 58 23 159 102 204 159 106 133 147 254 161 476 31 502 43 804
31 808 -7 2 -16 15 -21 28 -10 26 12 25 -245 17z m195 -135 c0 -51 -4 -174
-10 -273 -5 -99 -14 -266 -20 -371 -7 -145 -15 -208 -31 -260 -69 -225 -208
-364 -419 -419 -93 -25 -246 -23 -330 4 -115 36 -222 126 -269 226 -52 112
-66 189 -64 370 1 163 16 495 30 657 l6 77 41 5 c23 3 81 7 130 10 l89 5 -7
-112 c-3 -62 -11 -200 -17 -307 -6 -107 -9 -262 -7 -345 3 -127 7 -157 25
-197 27 -59 92 -122 148 -144 57 -21 174 -16 230 11 87 42 155 142 175 256 5
30 14 173 20 319 7 146 15 333 18 415 l7 150 100 6 c55 3 112 6 128 7 l27 2 0
-92z m-257 -1430 c35 -18 46 -40 47 -91 0 -58 -24 -109 -77 -158 -70 -67 -151
-88 -201 -53 -41 28 -55 70 -42 122 33 132 181 230 273 180z"/>
<path d="M3375 5811 c-238 -52 -425 -202 -543 -436 -52 -104 -73 -196 -79
-345 -5 -116 -2 -148 16 -225 26 -109 57 -177 115 -259 70 -98 180 -187 269
-216 22 -7 35 -16 30 -20 -4 -4 -107 -24 -228 -45 -373 -62 -686 -132 -969
-216 -230 -68 -260 -85 -285 -158 -20 -60 -14 -90 24 -128 44 -44 27 -46 403
48 156 39 286 69 288 66 3 -2 -4 -37 -15 -78 -95 -339 -146 -719 -139 -1034 3
-160 5 -173 28 -215 34 -61 87 -90 166 -90 83 0 97 17 101 113 12 290 39 530
84 767 29 150 98 431 136 555 19 60 19 60 68 72 182 44 505 107 512 99 2 -1
-22 -72 -53 -157 -122 -333 -238 -816 -251 -1035 -5 -104 -4 -114 15 -142 27
-37 81 -59 164 -68 100 -10 127 6 162 97 82 211 210 443 337 610 65 86 205
229 225 229 9 0 3 -34 -21 -127 -47 -177 -67 -300 -68 -424 -1 -100 0 -110 29
-165 51 -98 151 -152 264 -141 115 11 199 59 342 198 51 49 93 89 95 89 2 0 3
-12 3 -27 0 -42 43 -123 86 -165 65 -62 124 -83 229 -82 149 2 256 57 439 227
52 48 96 87 99 87 2 0 7 -23 9 -51 7 -66 31 -97 107 -136 53 -28 73 -33 132
-33 88 0 113 15 135 83 25 78 134 299 207 418 87 145 207 296 320 407 86 84
118 105 130 85 3 -5 -10 -69 -29 -143 -60 -244 -77 -347 -78 -475 -1 -115 0
-122 29 -173 51 -93 129 -142 236 -150 152 -11 285 55 461 226 l67 65 33 -35
c44 -47 129 -88 195 -95 103 -11 245 49 345 145 21 20 40 33 43 31 3 -3 -14
-54 -38 -113 l-42 -108 -81 -33 c-239 -96 -484 -276 -553 -405 -94 -176 8
-346 234 -390 268 -52 492 205 753 865 186 471 313 941 282 1053 -13 50 -68
100 -137 125 -60 21 -156 23 -173 2 -10 -12 -16 -13 -39 -1 -134 70 -390 -31
-600 -237 -41 -39 -94 -99 -119 -132 -91 -123 -160 -293 -163 -401 l-2 -64
-77 -79 c-99 -102 -191 -163 -240 -159 -34 3 -35 5 -38 48 -5 63 11 146 72
380 64 243 70 281 56 346 -48 214 -264 265 -510 120 -96 -56 -257 -202 -359
-326 -27 -33 -26 -28 9 68 36 99 37 128 7 173 -32 48 -164 98 -259 99 l-68 0
-18 -37 c-37 -73 -172 -518 -172 -566 0 -34 -258 -315 -364 -395 -87 -66 -175
-78 -177 -24 -7 123 36 286 141 530 58 138 59 155 6 208 -39 39 -113 63 -216
71 -57 4 -78 2 -86 -8 -18 -22 -98 -231 -139 -362 -21 -68 -44 -122 -55 -130
-10 -7 -51 -53 -92 -102 -135 -162 -282 -285 -309 -258 -31 31 3 229 83 473
68 210 62 297 -27 379 -49 45 -88 56 -176 48 -120 -11 -258 -97 -436 -272 -62
-61 -113 -108 -113 -105 0 10 76 230 123 355 38 100 71 179 183 441 3 6 -7 25
-22 43 l-26 31 28 23 c147 113 243 262 296 458 19 70 22 108 22 224 -1 122 -4
151 -28 230 -66 221 -223 390 -427 461 -58 20 -98 27 -184 29 -60 2 -128 0
-150 -4z m270 -61 c254 -65 424 -283 450 -577 12 -142 -40 -362 -116 -489 -46
-75 -135 -172 -203 -219 -53 -36 -58 -38 -108 -30 -29 4 -75 8 -103 9 -49 1
-50 0 -69 -39 -10 -22 -23 -43 -30 -47 -20 -14 -171 -8 -227 8 -167 49 -306
173 -380 340 -48 107 -64 323 -34 464 29 137 122 312 214 401 169 164 398 232
606 179z m65 -1379 c56 -19 84 -33 83 -42 -1 -8 -33 -86 -71 -174 -91 -210
-159 -393 -222 -600 -71 -235 -63 -262 40 -143 170 196 314 326 437 394 59 33
76 38 147 41 93 4 119 -5 153 -56 34 -50 30 -108 -17 -256 -75 -235 -102 -353
-103 -452 -2 -84 0 -93 22 -117 14 -14 35 -26 48 -26 62 0 175 88 308 241 50
56 109 123 133 146 23 24 42 50 42 58 0 19 119 372 137 408 13 26 17 28 56 22
81 -12 161 -36 179 -52 26 -23 23 -47 -22 -150 -156 -361 -186 -605 -80 -642
88 -30 212 47 405 252 l104 112 -5 -40 c-13 -90 -24 -107 -153 -235 -181 -179
-299 -244 -446 -244 -69 -1 -86 3 -126 26 -87 51 -111 108 -108 250 1 59 0
110 -3 114 -3 3 -19 -11 -35 -32 -249 -323 -483 -446 -629 -332 -45 36 -64 92
-64 195 0 125 14 214 66 426 24 99 42 188 39 198 -11 33 -41 42 -80 23 -43
-20 -193 -172 -271 -274 -127 -166 -255 -394 -330 -590 -15 -41 -33 -79 -39
-83 -5 -4 -46 -6 -91 -5 -113 4 -118 10 -111 118 21 303 171 860 359 1330 39
96 74 185 79 198 12 31 61 29 169 -7z m-260 -89 c0 -4 -4 -12 -8 -17 -5 -6
-17 -31 -26 -57 -10 -26 -21 -50 -25 -52 -3 -2 -121 -27 -261 -56 -140 -28
-284 -59 -320 -69 l-65 -18 -23 -69 c-113 -340 -204 -842 -221 -1216 -5 -102
-12 -191 -15 -197 -4 -6 -29 -11 -55 -11 -97 0 -121 54 -121 274 0 299 49 641
144 1006 29 111 33 137 22 148 -16 16 -168 -14 -451 -89 -104 -27 -212 -53
-239 -56 l-49 -6 6 48 c10 72 22 81 157 129 285 99 855 223 1340 291 189 26
210 28 210 17z m4559 -100 c39 -29 59 -28 71 3 11 29 27 31 100 9 34 -10 67
-29 88 -50 34 -34 34 -35 28 -102 -24 -236 -203 -789 -384 -1182 -154 -337
-289 -522 -427 -586 -104 -49 -258 -24 -337 53 -85 83 -71 192 41 316 90 101
336 254 510 317 l60 22 29 77 c70 185 134 382 128 397 -5 13 -35 -13 -127
-110 -130 -135 -194 -180 -302 -211 -126 -36 -241 16 -299 133 -19 39 -22 62
-22 142 1 79 6 110 32 184 40 111 87 196 162 289 115 142 297 270 445 312 72
21 167 15 204 -13z m-1272 -111 c26 -12 52 -35 70 -62 42 -63 37 -132 -21
-344 -85 -304 -105 -450 -71 -514 17 -33 33 -41 83 -41 63 0 202 92 289 192
l42 47 11 -34 c11 -33 9 -38 -20 -74 -48 -62 -167 -168 -231 -206 -139 -85
-285 -99 -377 -36 -12 9 -35 39 -50 66 -24 45 -27 60 -26 150 0 119 13 196 65
412 79 321 35 382 -154 217 -189 -167 -448 -556 -556 -838 -17 -44 -36 -83
-43 -88 -7 -4 -36 -8 -64 -8 -58 0 -148 39 -166 73 -25 47 9 297 78 578 40
166 129 438 149 458 13 13 24 13 87 -2 87 -21 156 -51 164 -70 3 -8 -22 -97
-55 -197 -59 -176 -70 -223 -53 -234 13 -8 26 5 93 89 80 101 267 294 339 350
161 123 309 164 417 116z"/>
<path d="M3398 5547 c-130 -37 -247 -169 -300 -340 -20 -61 -23 -94 -23 -217
1 -128 3 -152 24 -203 33 -84 95 -156 166 -192 53 -27 68 -30 149 -30 115 1
165 23 257 114 105 105 155 229 166 413 12 204 -62 370 -193 434 -66 32 -173
41 -246 21z m200 -69 c61 -15 122 -76 153 -154 19 -51 23 -78 23 -189 1 -143
-19 -234 -72 -325 -137 -236 -401 -268 -510 -62 -70 133 -67 320 9 490 58 129
142 210 248 238 59 16 91 17 149 2z"/>
<path d="M7855 4027 c-150 -66 -269 -185 -353 -353 -70 -138 -91 -258 -57
-323 42 -82 162 -44 293 93 131 136 211 259 276 422 41 104 44 136 16 164 -28
28 -109 26 -175 -3z m137 -72 c-1 -16 -23 -73 -48 -125 -119 -248 -316 -470
-419 -470 -33 0 -44 28 -34 90 29 187 200 420 369 504 48 24 85 36 105 34 27
-3 30 -6 27 -33z"/>
<path d="M7551 2835 c-131 -62 -263 -172 -306 -256 -35 -67 -12 -158 47 -190
39 -21 123 -14 173 15 75 44 165 181 221 336 31 85 31 108 -2 120 -38 15 -53
12 -133 -25z m99 -30 c0 -23 -48 -140 -83 -202 -56 -100 -98 -147 -148 -167
-50 -20 -88 -14 -119 19 -22 23 -22 28 -11 67 19 62 154 190 257 245 74 39
104 50 104 38z"/>
</g>
</svg>
